<svg xmlns="http://www.w3.org/2000/svg" viewBox="0 0 900 620"><defs><linearGradient id="g" x1="0" x2="1" y1="0" y2="1"><stop stop-color="#f8fafc"/><stop offset="1" stop-color="#dbeafe"/></linearGradient></defs><rect width="900" height="620" rx="44" fill="url(#g)"/><path d="M120 460c140-150 300-240 480-270" fill="none" stroke="#cbd5e1" stroke-width="8" stroke-dasharray="18 22"/><path d="M685 170l75 35-235 105 35 110-55 25-85-95-145 65-45-35 135-95-75-105 58-25 130 72z" fill="#0f5f7a"/><path d="M685 170l75 35-235 105 35 110-55 25-85-95-145 65-45-35 135-95-75-105 58-25 130 72z" fill="none" stroke="#0f172a" stroke-width="8" stroke-linejoin="round" opacity=".35"/><rect x="135" y="385" width="150" height="100" rx="18" fill="#fff" stroke="#cbd5e1" stroke-width="4"/><path d="M165 430h90M165 455h60" stroke="#64748b" stroke-width="10" stroke-linecap="round"/></svg>
