<svg xmlns="http://www.w3.org/2000/svg" viewBox="0 0 1200 900" role="img" aria-label="Internasjonal logistikk">
  <defs><linearGradient id="g" x1="0" x2="1" y1="0" y2="1"><stop stop-color="#eff6ff"/><stop offset="1" stop-color="#e2e8f0"/></linearGradient><linearGradient id="a" x1="0" x2="1"><stop stop-color="#00843d"/><stop offset="1" stop-color="#0f5f7a"/></linearGradient></defs>
  <rect width="1200" height="900" rx="56" fill="url(#g)"/>
  <path d="M90 650 C240 500 310 540 430 390 S690 250 850 330 1020 460 1110 250" fill="none" stroke="#cbd5e1" stroke-width="8" stroke-linecap="round"/>
  <path d="M135 660 C300 520 370 545 500 405 S735 300 875 365 1020 460 1090 335" fill="none" stroke="url(#a)" stroke-width="12" stroke-linecap="round"/>
  <g fill="#fff" stroke="#cbd5e1" stroke-width="4"><circle cx="155" cy="650" r="34"/><circle cx="505" cy="405" r="34"/><circle cx="880" cy="365" r="34"/><circle cx="1090" cy="335" r="34"/></g>
  <g fill="#0f172a" opacity=".78"><rect x="130" y="630" width="50" height="28" rx="6"/><rect x="470" y="385" width="70" height="38" rx="7"/><rect x="850" y="345" width="60" height="38" rx="7"/><path d="M1066 348h48l-8 18h-32z"/></g>
  <g fill="#fff" opacity=".7"><rect x="690" y="590" width="340" height="170" rx="28"/><rect x="160" y="150" width="330" height="170" rx="28"/></g>
  <text x="210" y="220" font-family="Arial" font-size="44" font-weight="700" fill="#0f172a">Vei · Sjø · Fly</text>
  <text x="735" y="665" font-family="Arial" font-size="34" font-weight="700" fill="#0f172a">Én partner</text>
  <text x="735" y="713" font-family="Arial" font-size="24" fill="#475569">Tett oppfølging hele veien</text>
</svg>
