<svg xmlns="http://www.w3.org/2000/svg" viewBox="0 0 900 620"><defs><linearGradient id="g" x1="0" x2="1" y1="0" y2="1"><stop stop-color="#f8fafc"/><stop offset="1" stop-color="#dbeafe"/></linearGradient></defs><rect width="900" height="620" rx="44" fill="url(#g)"/><path d="M40 470h820" stroke="#94a3b8" stroke-width="10" stroke-linecap="round"/><path d="M120 470c80-140 210-230 390-270 130-30 240-20 320 15" fill="none" stroke="#cbd5e1" stroke-width="8"/><rect x="160" y="295" width="420" height="120" rx="18" fill="#0f5f7a"/><rect x="580" y="330" width="130" height="85" rx="12" fill="#0f172a"/><circle cx="260" cy="430" r="45" fill="#1e293b"/><circle cx="630" cy="430" r="45" fill="#1e293b"/><circle cx="260" cy="430" r="18" fill="#f8fafc"/><circle cx="630" cy="430" r="18" fill="#f8fafc"/><rect x="205" y="325" width="70" height="50" rx="8" fill="#e2e8f0"/><rect x="300" y="325" width="70" height="50" rx="8" fill="#e2e8f0"/><rect x="395" y="325" width="70" height="50" rx="8" fill="#e2e8f0"/><path d="M620 346h46l28 36h-74z" fill="#93c5fd"/></svg>
