<svg xmlns="http://www.w3.org/2000/svg" viewBox="0 0 900 620"><defs><linearGradient id="g" x1="0" x2="1" y1="0" y2="1"><stop stop-color="#f8fafc"/><stop offset="1" stop-color="#e0f2fe"/></linearGradient></defs><rect width="900" height="620" rx="44" fill="url(#g)"/><path d="M80 440c110 35 210-35 320 0s210 35 420-10v105H80z" fill="#0f5f7a" opacity=".9"/><path d="M170 380h520l-70 85H240z" fill="#0f172a"/><rect x="260" y="240" width="80" height="70" rx="8" fill="#00843d"/><rect x="350" y="240" width="80" height="70" rx="8" fill="#94a3b8"/><rect x="440" y="240" width="80" height="70" rx="8" fill="#0f5f7a"/><rect x="305" y="165" width="80" height="70" rx="8" fill="#64748b"/><rect x="395" y="165" width="80" height="70" rx="8" fill="#00843d"/><rect x="485" y="165" width="80" height="70" rx="8" fill="#94a3b8"/><rect x="530" y="300" width="125" height="70" rx="10" fill="#e2e8f0"/><path d="M600 120v185" stroke="#64748b" stroke-width="10"/><path d="M600 130l100 42-100 42z" fill="#00843d"/></svg>
