<?xml version="1.0" encoding="UTF-8" standalone="no"?>
<svg
   xmlns:dc="http://purl.org/dc/elements/1.1/"
   xmlns:cc="http://creativecommons.org/ns#"
   xmlns:rdf="http://www.w3.org/1999/02/22-rdf-syntax-ns#"
   xmlns:svg="http://www.w3.org/2000/svg"
   xmlns="http://www.w3.org/2000/svg"
   xmlns:sodipodi="http://sodipodi.sourceforge.net/DTD/sodipodi-0.dtd"
   xmlns:inkscape="http://www.inkscape.org/namespaces/inkscape"
   version="1.1"
   id="svg2"
   xml:space="preserve"
   width="451.54666"
   height="72.32"
   viewBox="0 0 451.54666 72.32"
   sodipodi:docname="logo_venstre_pms.eps"><metadata
     id="metadata8"><rdf:RDF><cc:Work
         rdf:about=""><dc:format>image/svg+xml</dc:format><dc:type
           rdf:resource="http://purl.org/dc/dcmitype/StillImage" /></cc:Work></rdf:RDF></metadata><defs
     id="defs6" /><sodipodi:namedview
     pagecolor="#ffffff"
     bordercolor="#666666"
     borderopacity="1"
     objecttolerance="10"
     gridtolerance="10"
     guidetolerance="10"
     inkscape:pageopacity="0"
     inkscape:pageshadow="2"
     inkscape:window-width="640"
     inkscape:window-height="480"
     id="namedview4" /><g
     id="g10"
     inkscape:groupmode="layer"
     inkscape:label="ink_ext_XXXXXX"
     transform="matrix(1.3333333,0,0,-1.3333333,0,72.32)"><g
       id="g12"
       transform="scale(0.1)"><path
         d="m 656.004,520.297 c 0.984,-21.895 -1.238,-57.363 -20.395,-89.817 -3.566,-6.101 -7.761,-12.05 -12.617,-17.781 C 599.367,384.75 559.809,361.773 493.746,356.289 267.578,332.953 200.117,302.18 197.832,240.242 196.285,197.09 257.727,156.605 353.141,129.688 348.316,123.977 344.078,117.996 340.531,111.992 136.973,154.594 -3.33984,239.855 0.0585938,333.129 4.51172,453.238 306.352,544.824 612.648,542.402 c 38.957,-0.472 41.262,1.911 43.356,-22.105"
         style="fill:#0fab4b;fill-opacity:1;fill-rule:nonzero;stroke:none"
         id="path14" /><path
         d="m 320.152,22.168 c -1.015,21.8945 1.211,57.3554 20.379,89.824 3.555,6.094 7.766,12.039 12.637,17.766 23.609,27.969 63.176,50.937 129.23,56.414 226.168,23.344 293.629,54.101 295.903,116.047 1.558,43.164 -59.883,83.656 -155.297,110.554 4.809,5.707 9.062,11.692 12.605,17.707 C 839.18,387.871 979.484,302.613 976.086,209.34 971.625,89.2305 669.793,-2.35156 363.512,0.0507813 324.512,0.535156 322.242,-1.85547 320.152,22.168"
         style="fill:#b3b5b7;fill-opacity:1;fill-rule:nonzero;stroke:none"
         id="path16" /><path
         d="m 1218.31,129.445 c -28.02,0 -48.2,2.625 -66.13,6.723 -3.74,0.762 -7.1,3.359 -7.1,7.484 v 26.883 c 0,4.129 3.36,7.113 7.1,7.113 0.37,0 0.37,0 0.74,0 14.95,-1.863 52.31,-3.746 66.13,-3.746 33.25,0 43.34,11.973 43.34,33.633 0,14.574 -7.1,22.039 -31.76,36.617 l -49.31,29.504 c -34.74,20.563 -44.09,42.223 -44.09,68.367 0,41.098 23.91,70.985 93.4,70.985 24.66,0 59.04,-3.723 71.74,-6.723 3.73,-0.742 6.72,-3.363 6.72,-7.086 v -27.644 c 0,-3.746 -2.61,-6.731 -6.35,-6.731 -0.37,0 -0.37,0 -0.75,0 -24.66,2.242 -49.31,3.746 -73.6,3.746 -27.64,0 -39.22,-9.73 -39.22,-26.547 0,-12.312 6.35,-19.8 30.63,-33.23 l 44.83,-25.047 c 41.1,-22.777 51.93,-46.703 51.93,-76.211 0,-37.734 -23.53,-78.09 -98.25,-78.09"
         style="fill:#424a52;fill-opacity:1;fill-rule:nonzero;stroke:none"
         id="path18" /><path
         d="m 1535.5,135.805 c -18.69,-3.735 -42.97,-6.36 -81.45,-6.36 -40.35,0 -100.13,26.543 -100.13,114.707 v 53.789 c 0,88.543 56.79,115.067 101.25,115.067 35.87,0 67.99,-4.481 80.33,-6.723 4.85,-1.125 7.09,-2.984 7.09,-7.828 v -25.043 c 0,-5.226 -1.49,-7.848 -7.47,-7.848 -0.37,0 -0.74,0 -1.12,0 -17.19,1.5 -42.96,3.004 -78.83,3.004 -25.03,0 -48.94,-17.578 -48.94,-70.629 v -53.789 c 0,-53.054 25.78,-70.25 47.82,-70.25 13.82,0 25.4,0.379 36.99,1.121 v 95.27 c 0,4.125 2.99,7.488 7.09,7.488 h 36.99 c 4.11,0 7.47,-3.363 7.47,-7.488 V 144.777 c 0,-4.871 -2.24,-7.847 -7.09,-8.972"
         style="fill:#424a52;fill-opacity:1;fill-rule:nonzero;stroke:none"
         id="path20" /><path
         d="m 1841.86,134.688 c -11.22,-2.618 -43.73,-5.243 -63.52,-5.243 -48.57,0 -86.31,13.09 -86.31,76.586 v 196.528 c 0,4.105 3.37,7.468 7.48,7.468 h 36.98 c 4.12,0 7.47,-3.363 7.47,-7.468 V 206.031 c 0,-24.64 7.48,-32.129 29.16,-32.129 h 68.74 c 4.11,0 7.47,-3.367 7.47,-7.464 v -23.903 c 0,-5.25 -1.88,-6.73 -7.47,-7.847"
         style="fill:#424a52;fill-opacity:1;fill-rule:nonzero;stroke:none"
         id="path22" /><path
         d="m 2024.85,296.461 c 0,49.305 -17.55,71.348 -54.17,71.348 -36.61,0 -54.17,-22.043 -54.17,-71.348 v -50.449 c 0,-49.309 17.56,-71.348 54.17,-71.348 36.62,0 54.17,22.039 54.17,71.348 z m -54.17,-167.016 c -61.65,0 -106.47,34.368 -106.47,116.567 v 50.449 c 0,82.176 44.82,116.547 106.47,116.547 61.64,0 106.49,-34.371 106.49,-116.547 v -50.449 c 0,-82.199 -44.85,-116.567 -106.49,-116.567"
         style="fill:#424a52;fill-opacity:1;fill-rule:nonzero;stroke:none"
         id="path24" /><path
         d="m 2299.82,135.805 c -18.67,-3.735 -42.95,-6.36 -81.43,-6.36 -40.36,0 -100.13,26.543 -100.13,114.707 v 53.789 c 0,88.543 56.79,115.067 101.25,115.067 35.86,0 68,-4.481 80.31,-6.723 4.88,-1.125 7.11,-2.984 7.11,-7.828 v -25.043 c 0,-5.226 -1.5,-7.848 -7.48,-7.848 -0.36,0 -0.74,0 -1.11,0 -17.19,1.5 -42.97,3.004 -78.83,3.004 -25.03,0 -48.94,-17.578 -48.94,-70.629 v -53.789 c 0,-53.054 25.77,-70.25 47.82,-70.25 13.83,0 25.41,0.379 36.98,1.121 v 95.27 c 0,4.125 2.99,7.488 7.1,7.488 h 36.98 c 4.12,0 7.48,-3.363 7.48,-7.488 V 144.777 c 0,-4.871 -2.23,-7.847 -7.11,-8.972"
         style="fill:#424a52;fill-opacity:1;fill-rule:nonzero;stroke:none"
         id="path26" /><path
         d="m 2407.43,132.449 h -37 c -4.1,0 -7.46,3.356 -7.46,7.457 v 263.016 c 0,4.125 3.36,7.105 7.46,7.105 h 37 c 4.1,0 7.47,-2.98 7.47,-7.105 V 139.906 c 0,-4.101 -3.37,-7.457 -7.47,-7.457"
         style="fill:#424a52;fill-opacity:1;fill-rule:nonzero;stroke:none"
         id="path28" /><path
         d="m 2540.8,129.445 c -28.03,0 -48.21,2.625 -66.12,6.723 -3.75,0.762 -7.11,3.359 -7.11,7.484 v 26.883 c 0,4.129 3.36,7.113 7.11,7.113 0.35,0 0.35,0 0.73,0 14.94,-1.863 52.31,-3.746 66.12,-3.746 33.26,0 43.35,11.973 43.35,33.633 0,14.574 -7.11,22.039 -31.75,36.617 l -49.33,29.504 c -34.73,20.563 -44.08,42.223 -44.08,68.367 0,41.098 23.9,70.985 93.41,70.985 24.64,0 59.02,-3.723 71.72,-6.723 3.75,-0.742 6.73,-3.363 6.73,-7.086 v -27.644 c 0,-3.746 -2.62,-6.731 -6.35,-6.731 -0.38,0 -0.38,0 -0.76,0 -24.64,2.242 -49.3,3.746 -73.58,3.746 -27.65,0 -39.24,-9.73 -39.24,-26.547 0,-12.312 6.35,-19.8 30.65,-33.23 l 44.82,-25.047 c 41.1,-22.777 51.93,-46.703 51.93,-76.211 0,-37.734 -23.54,-78.09 -98.25,-78.09"
         style="fill:#424a52;fill-opacity:1;fill-rule:nonzero;stroke:none"
         id="path30" /><path
         d="m 2855.38,366.684 h -65.39 V 139.906 c 0,-4.101 -3.36,-7.457 -7.48,-7.457 h -36.98 c -4.12,0 -7.46,3.356 -7.46,7.457 v 226.778 h -65.38 c -4.14,0 -7.49,2.625 -7.49,6.73 v 29.508 c 0,4.125 3.35,7.105 7.49,7.105 h 182.69 c 4.1,0 7.46,-2.98 7.46,-7.105 v -29.508 c 0,-4.105 -3.36,-6.73 -7.46,-6.73"
         style="fill:#424a52;fill-opacity:1;fill-rule:nonzero;stroke:none"
         id="path32" /><path
         d="m 2944.66,132.449 h -36.99 c -4.11,0 -7.47,3.356 -7.47,7.457 v 263.016 c 0,4.125 3.36,7.105 7.47,7.105 h 36.99 c 4.11,0 7.47,-2.98 7.47,-7.105 V 139.906 c 0,-4.101 -3.36,-7.457 -7.47,-7.457"
         style="fill:#424a52;fill-opacity:1;fill-rule:nonzero;stroke:none"
         id="path34" /><path
         d="m 3165.45,135.426 c -5.61,-1.5 -30.24,-5.981 -59.01,-5.981 -44.85,0 -105.75,22.059 -105.75,114.325 v 54.929 c 0,93.774 60.9,114.309 105.75,114.309 28.77,0 53.4,-4.481 59.01,-5.961 4.86,-1.504 8.23,-3.363 8.23,-8.59 v -25.043 c 0,-4.488 -1.86,-7.848 -7.47,-7.848 0,0 -0.38,0 -0.76,0 -13.07,1.118 -38.48,3.004 -58.27,3.004 -31.4,0 -54.17,-16.816 -54.17,-69.871 V 243.77 c 0,-51.93 22.77,-69.868 54.17,-69.868 19.79,0 45.2,1.883 58.27,3.004 0.38,0 0.76,0 0.76,0 5.61,0 7.47,-3.367 7.47,-7.847 v -25.043 c 0,-5.227 -3.37,-7.086 -8.23,-8.59"
         style="fill:#424a52;fill-opacity:1;fill-rule:nonzero;stroke:none"
         id="path36" /><path
         d="m 3288.37,129.445 c -28.03,0 -48.21,2.625 -66.12,6.723 -3.75,0.762 -7.11,3.359 -7.11,7.484 v 26.883 c 0,4.129 3.36,7.113 7.11,7.113 0.36,0 0.36,0 0.74,0 14.93,-1.863 52.3,-3.746 66.12,-3.746 33.25,0 43.34,11.973 43.34,33.633 0,14.574 -7.11,22.039 -31.75,36.617 l -49.33,29.504 c -34.73,20.563 -44.08,42.223 -44.08,68.367 0,41.098 23.9,70.985 93.41,70.985 24.64,0 59.02,-3.723 71.73,-6.723 3.74,-0.742 6.72,-3.363 6.72,-7.086 v -27.644 c 0,-3.746 -2.62,-6.731 -6.34,-6.731 -0.38,0 -0.38,0 -0.76,0 -24.65,2.242 -49.31,3.746 -73.59,3.746 -27.65,0 -39.24,-9.73 -39.24,-26.547 0,-12.312 6.35,-19.8 30.65,-33.23 l 44.82,-25.047 c 41.1,-22.777 51.93,-46.703 51.93,-76.211 0,-37.734 -23.54,-78.09 -98.25,-78.09"
         style="fill:#424a52;fill-opacity:1;fill-rule:nonzero;stroke:none"
         id="path38" /></g></g></svg>
